<svg xmlns="http://www.w3.org/2000/svg" xmlns:xlink="http://www.w3.org/1999/xlink" width="1920" height="498" viewBox="0 0 1920 498">
  <defs>
    <clipPath id="clip-path">
      <rect id="Rectangle_1" data-name="Rectangle 1" width="8" height="14.548" fill="#fff"/>
    </clipPath>
    <clipPath id="clip-path-2">
      <rect id="Rectangle_1-2" data-name="Rectangle 1" width="13.941" height="14.012" transform="translate(0 0)" fill="#4b647e"/>
    </clipPath>
  </defs>
  <g id="Footer" transform="translate(0 -5688)">
    <rect id="Rectangle_68" data-name="Rectangle 68" width="1920" height="498" transform="translate(0 5688)" fill="#fff"/>
    <text id="The_full-stack_design_team_who_focuses_on_digital_products_whatever_they_are." data-name="The full-stack design team who focuses on digital products whatever they are." transform="translate(375 5848)" fill="#747474" font-size="14" font-family="Roboto-Regular, Roboto"><tspan x="0" y="15">The full-stack design team who focuses </tspan><tspan x="0" y="43">on digital products whatever they are.</tspan></text>
    <text id="_123_456_789_00" data-name="+123 456 789 00" transform="translate(1405 5834)" fill="#4b647e" font-size="20" font-family="Roboto-Regular, Roboto"><tspan x="0" y="21">+123 456 789 </tspan></text>
    <text id="We_re_Hiring" data-name="We&apos;re Hiring" transform="translate(820 5834)" fill="#4b647e" font-size="20" font-family="Roboto-Regular, Roboto"><tspan x="0" y="21">We&apos;re Hiring</tspan></text>
    <text id="About_us" data-name="About us" transform="translate(1105 5834)" fill="#4b647e" font-size="20" font-family="Roboto-Regular, Roboto"><tspan x="0" y="21">About us</tspan></text>
    <text id="Contact_Us" data-name="Contact Us" transform="translate(1405 5883)" fill="#4b647e" font-size="20" font-family="Roboto-Regular, Roboto"><tspan x="0" y="21">Contact Us</tspan></text>
    <text id="Our_Customer" data-name="Our Customer" transform="translate(820 5883)" fill="#4b647e" font-size="20" font-family="Roboto-Regular, Roboto"><tspan x="0" y="21">Our Customer</tspan></text>
    <text id="Our_clients" data-name="Our clients" transform="translate(1105 5883)" fill="#4b647e" font-size="20" font-family="Roboto-Regular, Roboto"><tspan x="0" y="21">Our clients</tspan></text>
    <text id="Blog_Post" data-name="Blog Post" transform="translate(820 5932)" fill="#4b647e" font-size="20" font-family="Roboto-Regular, Roboto"><tspan x="0" y="21">Blog Post</tspan></text>
    <text id="Legal_notic" data-name="Legal notic" transform="translate(1105 5932)" fill="#4b647e" font-size="20" font-family="Roboto-Regular, Roboto"><tspan x="0" y="21">Legal notic</tspan></text>
    <text id="Help_Support" data-name="Help &amp; Support" transform="translate(820 5981)" fill="#4b647e" font-size="20" font-family="Roboto-Regular, Roboto"><tspan x="0" y="21">Help &amp; Support</tspan></text>
    <text id="Contact" transform="translate(1375 5774)" fill="#747474" font-size="24" font-family="Roboto-Regular, Roboto"><tspan x="0" y="25">Contact</tspan></text>
    <text id="About_Us-2" data-name="About Us" transform="translate(820 5774)" fill="#747474" font-size="24" font-family="Roboto-Regular, Roboto"><tspan x="0" y="25">About Us</tspan></text>
    <text id="Community" transform="translate(1105 5774)" fill="#747474" font-size="24" font-family="Roboto-Regular, Roboto"><tspan x="0" y="25">Community</tspan></text>
    <circle id="Ellipse_89" data-name="Ellipse 89" cx="21.5" cy="21.5" r="21.5" transform="translate(375 5936)" fill="#0a315a"/>
    <circle id="Ellipse_90" data-name="Ellipse 90" cx="21.5" cy="21.5" r="21.5" transform="translate(431 5936)" fill="#0a315a"/>
    <circle id="Ellipse_91" data-name="Ellipse 91" cx="21.5" cy="21.5" r="21.5" transform="translate(490 5936)" fill="#0a315a"/>
    <circle id="Ellipse_92" data-name="Ellipse 92" cx="21.5" cy="21.5" r="21.5" transform="translate(555 5936)" fill="#0a315a"/>
    <g id="Facebook" transform="translate(117 5568.11)" opacity="0.8">
      <g id="Group_2" data-name="Group 2" transform="translate(276 382.89)">
        <g id="Group_1" data-name="Group 1" clip-path="url(#clip-path)">
          <path id="Path_1" data-name="Path 1" d="M284.146,382.795l-1.866,0a3.276,3.276,0,0,0-3.45,3.541v1.633h-1.876a.293.293,0,0,0-.294.293v2.366a.294.294,0,0,0,.294.293h1.876v5.969a.293.293,0,0,0,.293.293h2.448a.293.293,0,0,0,.293-.293v-5.969h2.193a.294.294,0,0,0,.294-.293v-2.366a.293.293,0,0,0-.294-.293h-2.194v-1.384c0-.665.158-1,1.025-1h1.256a.294.294,0,0,0,.294-.293v-2.2a.294.294,0,0,0-.293-.294Zm0,0" transform="translate(-276.537 -382.81)" fill="#fff"/>
        </g>
      </g>
    </g>
    <g id="Twitter" transform="translate(394 5729.11)">
      <path id="Path_1-2" data-name="Path 1" d="M66,224.236a5.739,5.739,0,0,1-1.649.452,2.884,2.884,0,0,0,1.262-1.588,5.793,5.793,0,0,1-1.825.7,2.874,2.874,0,0,0-4.894,2.618,8.154,8.154,0,0,1-5.919-3,2.875,2.875,0,0,0,.889,3.833,2.872,2.872,0,0,1-1.3-.36v.036a2.875,2.875,0,0,0,2.3,2.816,2.907,2.907,0,0,1-.757.1,2.751,2.751,0,0,1-.541-.053,2.874,2.874,0,0,0,2.682,1.995,5.762,5.762,0,0,1-3.567,1.227A6.1,6.1,0,0,1,52,232.97a8.165,8.165,0,0,0,12.573-6.879l-.01-.372A5.737,5.737,0,0,0,66,224.236Zm0,0" transform="translate(0 0)" fill="#fff"/>
    </g>
    <g id="Google_" data-name="Google+" transform="translate(411 5658.11)">
      <path id="Path_1-3" data-name="Path 1" d="M377.814,347.9v-2.808h-1.4V347.9H373.6v1.4h2.808v2.808h1.4V349.3h2.809v-1.4Zm0,0" transform="translate(-266.423 -48.458)" fill="#fff"/>
      <path id="Path_2" data-name="Path 2" d="M99.021,299.44v2.775h3.972a4.193,4.193,0,1,1-1.244-4.545l1.845-2.092a6.912,6.912,0,1,0,2.447,5.25V299.44Zm0,0" fill="#fff"/>
    </g>
    <g id="Youtube" transform="translate(396 5618.11)">
      <path id="Path_1-4" data-name="Path 1" d="M188.376,334.857c-.577-.686-1.644-.967-3.68-.967H177.3c-2.083,0-3.167.3-3.743,1.029-.561.713-.561,1.763-.561,3.216v2.77c0,2.815.666,4.245,4.3,4.245H184.7c1.766,0,2.745-.247,3.378-.853.649-.621.926-1.636.926-3.392v-2.77c0-1.533-.043-2.589-.624-3.278Zm-5.1,5.046-3.357,1.754a.516.516,0,0,1-.755-.457v-3.5a.516.516,0,0,1,.754-.458l3.357,1.743a.516.516,0,0,1,0,.916Zm0,0" fill="#fff"/>
    </g>
    <text id="_2019_all_rights_reserved" data-name="© 2019 all rights reserved" transform="translate(375 6092)" fill="#969ca2" font-size="14" font-family="Roboto-Regular, Roboto"><tspan x="0" y="0">© 2019 all rights reserved</tspan></text>
    <path id="Path_1199" data-name="Path 1199" d="M25.267.42l0,0,0,0a1.384,1.384,0,0,0-1.5-.31L.892,9.043a1.4,1.4,0,0,0,.323,2.7l11.177,1.507a.047.047,0,0,1,.04.041L13.94,24.463a1.385,1.385,0,0,0,1.223,1.2,1.477,1.477,0,0,0,.175.01,1.382,1.382,0,0,0,1.3-.892L25.578,1.917A1.384,1.384,0,0,0,25.267.42ZM1.355,10.354c0-.036.006-.041.03-.05l21.4-8.366L12.774,11.946C12.709,11.927,1.4,10.4,1.4,10.4,1.371,10.392,1.36,10.39,1.355,10.354ZM15.374,24.293c-.009.023-.013.034-.05.03s-.038-.016-.041-.041c0,0-1.532-11.313-1.551-11.378L23.74,2.9Z" transform="translate(1501 5878.321)" fill="#fff"/>
    <g id="Location" transform="translate(1378.456 5885.406)">
      <path id="Path_1-5" data-name="Path 1" d="M158.482,215.89a5.483,5.483,0,0,0-4.664,8.365l4.352,7.013a.457.457,0,0,0,.388.216h0a.457.457,0,0,0,.388-.222l4.241-7.081a5.483,5.483,0,0,0-4.709-8.291Zm3.925,7.822-3.856,6.438-3.956-6.376a4.572,4.572,0,1,1,7.812-.062Zm0,0" transform="translate(-153 -215.89)" fill="#4b647e"/>
      <path id="Path_2-2" data-name="Path 2" d="M227.741,287.89a2.741,2.741,0,1,0,2.741,2.741,2.744,2.744,0,0,0-2.741-2.741Zm0,4.575a1.833,1.833,0,1,1,1.83-1.833,1.835,1.835,0,0,1-1.83,1.833Zm0,0" transform="translate(-222.259 -285.149)" fill="#4b647e"/>
    </g>
    <g id="Phone" transform="translate(1376 5838.108)">
      <g id="Group_1-2" data-name="Group 1" transform="translate(0 0)" clip-path="url(#clip-path-2)">
        <path id="Path_1-6" data-name="Path 1" d="M119.286,261.522a1.372,1.372,0,0,0-.995-.456,1.418,1.418,0,0,0-1.006.453l-.93.927c-.077-.041-.153-.079-.227-.118-.106-.053-.206-.1-.291-.156a10.108,10.108,0,0,1-2.422-2.207,5.972,5.972,0,0,1-.795-1.254c.241-.221.465-.45.683-.671l.247-.25a1.35,1.35,0,0,0,0-2.037l-.8-.8c-.091-.091-.185-.185-.274-.279-.176-.182-.362-.371-.553-.548a1.393,1.393,0,0,0-.986-.433,1.442,1.442,0,0,0-1,.433l-.006.006-1,1.009a2.154,2.154,0,0,0-.639,1.369,5.16,5.16,0,0,0,.377,2.184,12.675,12.675,0,0,0,2.251,3.755,13.853,13.853,0,0,0,4.612,3.611,7.188,7.188,0,0,0,2.59.765c.062,0,.127.006.185.006a2.217,2.217,0,0,0,1.7-.73c0-.006.009-.009.012-.015a6.711,6.711,0,0,1,.515-.533c.127-.121.256-.247.383-.38a1.468,1.468,0,0,0,.444-1.018,1.414,1.414,0,0,0-.453-1.009Zm1.053,3.1s0,0,0,0c-.115.124-.232.236-.359.359a7.751,7.751,0,0,0-.568.589,1.418,1.418,0,0,1-1.107.468c-.044,0-.091,0-.135,0a6.386,6.386,0,0,1-2.3-.689,13.077,13.077,0,0,1-4.344-3.4,11.951,11.951,0,0,1-2.119-3.529,4.2,4.2,0,0,1-.33-1.842,1.351,1.351,0,0,1,.406-.874l1-1a.67.67,0,0,1,.447-.209.63.63,0,0,1,.43.206l.009.009c.179.168.35.341.53.527.091.094.185.188.28.286l.8.8a.562.562,0,0,1,0,.912c-.085.085-.168.171-.253.253-.247.253-.483.489-.739.718-.006.006-.012.009-.015.015a.6.6,0,0,0-.153.668l.009.027a6.454,6.454,0,0,0,.951,1.551l0,0a10.8,10.8,0,0,0,2.613,2.378,4,4,0,0,0,.362.2c.106.053.206.1.291.156.012.006.023.015.035.021a.639.639,0,0,0,.291.074.629.629,0,0,0,.447-.2l1.006-1.006a.665.665,0,0,1,.444-.221.6.6,0,0,1,.424.215l.006.006,1.622,1.622a.582.582,0,0,1,0,.921Zm0,0" transform="translate(-108.265 -252.852)" fill="#4b647e"/>
        <path id="Path_2-3" data-name="Path 2" d="M304.283,301.3a3.788,3.788,0,0,1,3.084,3.084.4.4,0,0,0,.391.33.527.527,0,0,0,.068-.006.4.4,0,0,0,.327-.459,4.579,4.579,0,0,0-3.732-3.732.4.4,0,0,0-.459.324.393.393,0,0,0,.321.459Zm0,0" transform="translate(-296.747 -297.946)" fill="#4b647e"/>
        <path id="Path_3" data-name="Path 3" d="M313.626,237.916a7.541,7.541,0,0,0-6.145-6.145.4.4,0,1,0-.13.783,6.736,6.736,0,0,1,5.492,5.492.4.4,0,0,0,.391.33.512.512,0,0,0,.068-.006.39.39,0,0,0,.324-.453Zm0,0" transform="translate(-299.698 -231.732)" fill="#4b647e"/>
      </g>
    </g>
    <text id="Web_UiExpert" data-name="Web UiExpert" transform="translate(375 5809)" fill="#3d37f1" font-size="32" font-family="Lato-Bold, Lato" font-weight="700"><tspan x="0" y="0">Web </tspan><tspan y="0" fill="#4b647e" font-family="Lato-Light, Lato" font-weight="300">UiExpert</tspan></text>
  </g>
</svg>
