<svg xmlns="http://www.w3.org/2000/svg" xmlns:xlink="http://www.w3.org/1999/xlink" width="801" height="326.634" viewBox="0 0 801 526.634">
  <defs>
    <linearGradient id="linear-gradient" x1="0.5" x2="0.5" y2="1" gradientUnits="objectBoundingBox">
      <stop offset="0" stop-color="#e2e1ff"/>
      <stop offset="1" stop-color="#807cf4"/>
    </linearGradient>
    <linearGradient id="linear-gradient-2" x1="-0.03" y1="0.503" x2="0.97" y2="0.503" gradientUnits="objectBoundingBox">
      <stop offset="0" stop-color="gray" stop-opacity="0.251"/>
      <stop offset="0.54" stop-color="gray" stop-opacity="0.122"/>
      <stop offset="1" stop-color="gray" stop-opacity="0.102"/>
    </linearGradient>
  </defs>
  <g id="undraw_pair_programming_njlp" transform="translate(-36.038 -36.446)">
    <path id="Path_1201" data-name="Path 1201" d="M400.5,0C621.69,0,801,179.31,801,400.5s-98.81,0-320,0S0,621.69,0,400.5,179.31,0,400.5,0Z" transform="translate(36.038 36.446)" fill="url(#linear-gradient)"/>
    <rect id="Rectangle_121" data-name="Rectangle 121" width="216.213" height="50.065" transform="translate(274.633 274.038)" fill="#565661"/>
    <rect id="Rectangle_122" data-name="Rectangle 122" width="216.213" height="50.065" transform="translate(274.633 274.038)" opacity="0.1"/>
    <path id="Path_1363" data-name="Path 1363" d="M387.417,427.03l1.518,133.658-20.8,52.5L366.53,427.03Z" transform="translate(-86.916 -101.279)" fill="#bcbec9"/>
    <path id="Path_1364" data-name="Path 1364" d="M362.99,371.84,573.5,373.106v37.288H362.99Z" transform="translate(-86.076 -88.19)" fill="#565661"/>
    <path id="Path_1365" data-name="Path 1365" d="M615.33,427.03l18.011,2.54V611.158L615.33,555.615Z" transform="translate(-145.92 -101.279)" fill="#bcbec9"/>
    <rect id="Rectangle_123" data-name="Rectangle 123" width="101.451" height="215.58" transform="translate(494.263 276.044)" fill="#efeff0"/>
    <rect id="Rectangle_124" data-name="Rectangle 124" width="85.217" height="165.713" transform="translate(502.38 282.033)" fill="#565661"/>
    <rect id="Rectangle_125" data-name="Rectangle 125" width="85.217" height="165.713" transform="translate(502.38 282.033)" opacity="0.1"/>
    <rect id="Rectangle_126" data-name="Rectangle 126" width="85.217" height="36.777" transform="translate(502.38 285.427)" fill="#565661"/>
    <rect id="Rectangle_127" data-name="Rectangle 127" width="85.217" height="78.115" transform="translate(502.38 325.751)" fill="#565661"/>
    <rect id="Rectangle_128" data-name="Rectangle 128" width="85.217" height="78.115" transform="translate(502.38 408.688)" fill="#565661"/>
    <rect id="Rectangle_129" data-name="Rectangle 129" width="85.217" height="78.115" transform="translate(502.38 408.688)" opacity="0.1"/>
    <ellipse id="Ellipse_33" data-name="Ellipse 33" cx="5.492" cy="7.018" rx="5.492" ry="7.018" transform="translate(500.442 491.624)" fill="#565661"/>
    <ellipse id="Ellipse_34" data-name="Ellipse 34" cx="5.492" cy="7.018" rx="5.492" ry="7.018" transform="translate(576.612 491.96)" fill="#565661"/>
    <path id="Path_1366" data-name="Path 1366" d="M357.186,598.315h7.354L362.518,364.32H351.35Z" transform="translate(-83.316 -86.407)" fill="#efeff0"/>
    <path id="Path_1367" data-name="Path 1367" d="M638.94,361.87V595.7h6.843V363.739Z" transform="translate(-151.52 -85.825)" fill="#efeff0"/>
    <path id="Path_1368" data-name="Path 1368" d="M366.46,419.38v8.376H574.32v-6.087Z" transform="translate(-86.899 -99.464)" fill="#efeff0"/>
    <path id="Path_1369" data-name="Path 1369" d="M376.573,341.26H640.089l38.295,12.678v7.354L349.69,358.76v-7.483Z" transform="translate(-82.922 -80.938)" fill="#fff"/>
    <path id="Path_1370" data-name="Path 1370" d="M349.69,354.39l328.694,2.662v7.354L349.69,361.873Z" transform="translate(-82.922 -84.052)" fill="#bcbec9"/>
    <path id="Path_1371" data-name="Path 1371" d="M423.158,549.178l-1.526-.229v-.191c-.046-.359-.1-.709-.153-1.068.626.5,1.221.992,1.77,1.488Z" transform="translate(-126.617 -191.631)" fill="url(#linear-gradient-2)"/>
    <path id="Path_1372" data-name="Path 1372" d="M376.842,703.618c.992-.229,2-.42,3.006-.557a36.174,36.174,0,0,1,20.307,2.99c-.641,4.714-1.274,9.589.084,14.143.946,3.2,2.845,6.1,3.25,9.444a5.569,5.569,0,0,1,4.386,3.875,8.429,8.429,0,0,1,.435,2.716,14.492,14.492,0,0,1-.427,3.387,3.417,3.417,0,0,1-3.662,3.051c-5.9.671-11.694-1.655-17.187-3.936l-10.68-4.44c-1.251-.519-2.51-1.045-3.707-1.686a20.315,20.315,0,0,1-5.943-4.859,2.708,2.708,0,0,1-.709-1.282c-.2-1.343,1.373-2.144,2.372-3.051a4.752,4.752,0,0,0,.763-.931c1.182-1.785,1.3-4.249,2.006-6.354,1.678-5,6.866-8.216,8.7-13.09.1-.267.191-.534.267-.809" transform="translate(-113.454 -228.281)" fill="#a26565"/>
    <path id="Path_1373" data-name="Path 1373" d="M408.31,742.526a14.493,14.493,0,0,1-.427,3.387,3.418,3.418,0,0,1-3.662,3.051c-5.9.671-11.694-1.655-17.187-3.936l-10.68-4.44c-1.251-.519-2.51-1.045-3.707-1.686a20.314,20.314,0,0,1-5.943-4.859,2.708,2.708,0,0,1-.709-1.281c-.2-1.343,1.373-2.144,2.372-3.051a4.755,4.755,0,0,0,.763-.931c2.945.633,6.6,2.487,8.849,3.2a26.868,26.868,0,0,1,6.438,2.693c2.807,1.8,4.829,4.577,7.209,6.865s5.454,4.371,8.773,4.089a14.494,14.494,0,0,0,4.989-1.724Z" transform="translate(-113.454 -234.577)" opacity="0.1"/>
    <path id="Path_1374" data-name="Path 1374" d="M398.636,602.366a3.532,3.532,0,0,1-1.3,3.814c-1,.618-2.289.534-3.28,1.205-1.228.862-1.4,2.571-1.617,4.051-.763,5.088-3.288,9.7-5.447,14.38s-3.982,9.78-3.189,14.86c.542,3.448,2.235,7.125.648,10.23-.389.763-.969,1.442-1.411,2.182-2.174,3.631-.938,8.231-1.022,12.457a2.464,2.464,0,0,1-.3,1.35,3.731,3.731,0,0,1-1.205.931,6.393,6.393,0,0,0-2.6,4.905,18.743,18.743,0,0,0,.687,5.691,3.387,3.387,0,0,0,.938,1.983,3.509,3.509,0,0,0,2.052.58,45.647,45.647,0,0,1,13.93,3.387c2.891,1.205,5.7,2.716,8.773,3.3a2.288,2.288,0,0,0,1.8-.191,2.479,2.479,0,0,0,.763-1.32c1.182-3.891,2.38-7.9,1.976-11.946-.175-1.739-.641-3.44-.763-5.18-.534-6.866,4.112-13.06,5.584-19.834.664-3.051.664-6.21,1.137-9.291,1.282-8.445,5.935-16.02,7.728-24.373a26.492,26.492,0,0,1,1.16-4.577c1.335-3.234,4.424-5.859,4.493-9.36a3.646,3.646,0,0,0-.58-2.182,4.943,4.943,0,0,0-2.723-1.526,92.963,92.963,0,0,0-12.625-2.548,23.914,23.914,0,0,0-5.935-.412,17.47,17.47,0,0,0-7.262,2.563C396.1,599.307,397.995,599.742,398.636,602.366Z" transform="translate(-116.283 -202.825)" fill="#454b69"/>
    <path id="Path_1375" data-name="Path 1375" d="M398.636,602.366a3.532,3.532,0,0,1-1.3,3.814c-1,.618-2.289.534-3.28,1.205-1.228.862-1.4,2.571-1.617,4.051-.763,5.088-3.288,9.7-5.447,14.38s-3.982,9.78-3.189,14.86c.542,3.448,2.235,7.125.648,10.23-.389.763-.969,1.442-1.411,2.182-2.174,3.631-.938,8.231-1.022,12.457a2.464,2.464,0,0,1-.3,1.35,3.731,3.731,0,0,1-1.205.931,6.393,6.393,0,0,0-2.6,4.905,18.743,18.743,0,0,0,.687,5.691,3.387,3.387,0,0,0,.938,1.983,3.509,3.509,0,0,0,2.052.58,45.647,45.647,0,0,1,13.93,3.387c2.891,1.205,5.7,2.716,8.773,3.3a2.288,2.288,0,0,0,1.8-.191,2.479,2.479,0,0,0,.763-1.32c1.182-3.891,2.38-7.9,1.976-11.946-.175-1.739-.641-3.44-.763-5.18-.534-6.866,4.112-13.06,5.584-19.834.664-3.051.664-6.21,1.137-9.291,1.282-8.445,5.935-16.02,7.728-24.373a26.492,26.492,0,0,1,1.16-4.577c1.335-3.234,4.424-5.859,4.493-9.36a3.646,3.646,0,0,0-.58-2.182,4.943,4.943,0,0,0-2.723-1.526,92.963,92.963,0,0,0-12.625-2.548,23.914,23.914,0,0,0-5.935-.412,17.47,17.47,0,0,0-7.262,2.563C396.1,599.307,397.995,599.742,398.636,602.366Z" transform="translate(-116.283 -202.825)" opacity="0.05"/>
    <path id="Path_1376" data-name="Path 1376" d="M347.111,645.131H340.6l-4.257-87.452-.3-4.974,5.531-1.945.374,5.286Z" transform="translate(-79.687 -130.622)" fill="#565661"/>
    <path id="Path_1377" data-name="Path 1377" d="M341.954,556.047l-5.607,1.632-.3-4.974,5.531-1.945Z" transform="translate(-79.687 -130.622)" opacity="0.1"/>
    <path id="Path_1378" data-name="Path 1378" d="M398.725,656.39l-10.733,1.3L338.544,545.465l-13.335-.976-23.419,6.835-4.554,133.612H286.5l4.226-138.494-25.7.656L219.167,661.265H209.41l48.235-133.429,1.861-5.142,71.883-2.464,17.919,10.047.229.58Z" transform="translate(-49.654 -123.382)" fill="#565661"/>
    <path id="Path_1379" data-name="Path 1379" d="M399.492,611.786c-15.448,4.653-31.483,9.734-31.483,9.734s-14.624,5.1-20.818,0a9.359,9.359,0,0,0-2.586-1.427,12.74,12.74,0,0,0,2.586,1.427L307.6,608.758l1.854-5.134,71.89-2.464,17.919,10.047Z" transform="translate(-99.609 -204.312)" opacity="0.1"/>
    <path id="Path_1380" data-name="Path 1380" d="M332.207,584.037l29.27-6.507s69.938,13.014,75.14,18.217c0,0-55.947,11.382-62.126,15.257S331.551,619.166,332.207,584.037Z" transform="translate(-105.443 -198.708)" fill="#fff"/>
    <path id="Path_1381" data-name="Path 1381" d="M309.379,469.3c-2.289,7.255-8.536,13.792-16.142,14.1a2.815,2.815,0,0,1-1.61-.29c-.954-.6-.976-1.991-.587-3.051a13.2,13.2,0,0,0,1.175-3.128,2.045,2.045,0,0,0-.046-.679c-.2-.908-.938-1.716-1.808-1.526a3.051,3.051,0,0,0,.648-4.051,9.153,9.153,0,0,1-.931-1.251c-.633-1.3.351-2.754.763-4.142.847-3.051-1.3-6.1-1.48-9.284-.153-2.845,1.289-5.523,1.648-8.345.572-4.577-1.7-8.963-1.968-13.533a28.658,28.658,0,0,1,1.48-9.421,34.056,34.056,0,0,0,1.678-8.391c0-2.083-.359-4.142-.458-6.217a10.825,10.825,0,0,1,1-5.523,4.417,4.417,0,0,1,2.51-2.144c2.5-.839,4.142.465,4.508,2.838.61,4.035.259,8.155,1.06,12.205a57.212,57.212,0,0,0,3.349,11.054c1.35,3.219,2.99,6.332,4.028,9.665a53.245,53.245,0,0,1,1.671,8.391C310.89,454.2,311.69,462.047,309.379,469.3Z" transform="translate(-95.202 -157.121)" fill="#6c63ff"/>
    <path id="Path_1382" data-name="Path 1382" d="M530.8,725.827a11.831,11.831,0,0,1-8.338,4.913c-3.311.412-6.751-.42-9.963.488a3.051,3.051,0,0,0-2.289,1.762,18.734,18.734,0,0,0-.145,1.869c-.374,2.037-3.051,2.495-5.134,2.479l-8.59-.053c-1.785,0-3.761-.1-5.042-1.335a3.753,3.753,0,0,1-.076-4.943,3.1,3.1,0,0,1,.961-.763,3.051,3.051,0,0,1-2.06-2.449,9.108,9.108,0,0,1,.16-3.364c0-3.189.763-8.529,3.006-11.023,2.754-3.1,7.529-7.117,11.687-7.949a9.154,9.154,0,0,1,7.918,2.25c1.968,1.831,3.4,4.7,6.1,5.02,1.472.183,2.891-.511,4.348-.763a8.094,8.094,0,0,1,8.246,4.356,8.588,8.588,0,0,1,.763,2.388,9.917,9.917,0,0,1-1.556,7.117Z" transform="translate(-142.875 -229.008)" fill="#a26565"/>
    <path id="Path_1383" data-name="Path 1383" d="M530.889,730a11.832,11.832,0,0,1-8.338,4.913c-3.311.412-6.751-.42-9.963.488a3.052,3.052,0,0,0-2.289,1.762,18.734,18.734,0,0,0-.145,1.869c-.374,2.037-3.051,2.495-5.134,2.479l-8.59-.053c-1.785,0-3.761-.1-5.042-1.335a3.753,3.753,0,0,1-.076-4.943c4.958-.206,9.833,0,14.776-1.022,2.006-.4,3.982-.938,6.011-1.221,4.394-.626,9.07-.092,13.106-1.953a14.813,14.813,0,0,0,7.2-8.094,9.917,9.917,0,0,1-1.518,7.11Z" transform="translate(-142.967 -233.181)" opacity="0.1"/>
    <path id="Path_1384" data-name="Path 1384" d="M460.419,674.219c-3.051,2.365-6.629,4.211-10.474,4.409s-7.926-1.526-9.81-4.867c-2.754-4.905-.313-11.725-3.685-16.226-1.053-1.411-2.571-2.411-3.685-3.776s-1.755-3.417-.763-4.867c-1.2.458-2.464-.7-2.815-1.938a35.423,35.423,0,0,1-.343-3.814c-.557-3.318-3.814-5.447-5.378-8.391s-1.35-6.766-1.526-10.253a38.9,38.9,0,0,0-9-23.152c-1.037-1.236-2.365-2.495-3.982-2.434.282-2.792-1.579-5.462-3.99-6.866a19.779,19.779,0,0,0-8.071-2.151c-28.172-2.777-57.526,7.7-84.424-1.114-7.484-2.449-14.7-6.545-19.277-12.968a22.672,22.672,0,0,1-4.035-17.149v-.107c1.06-5.416,3.921-6.751,8.658-9.223a103.927,103.927,0,0,1,17.08-7.163c11.443-3.578,23.763-4.867,35.571-2.243,5.515,1.236,10.832,3.28,16.355,4.478,2.174.473,4.363.809,6.568,1.091,3.425.427,6.866.709,10.314,1.106a156.022,156.022,0,0,1,32.39,7.285,42.418,42.418,0,0,1,11.191,5.248,24.792,24.792,0,0,1,9.947,16.371c.32,2.243.328,4.577.816,6.751a34.324,34.324,0,0,0,1.831,5.34,355.206,355.206,0,0,1,15.936,49.585,12.046,12.046,0,0,0,1.274,3.585c.976,1.579,2.655,2.639,3.639,4.219,2.289,3.723.084,8.918,2.113,12.793.7,1.343,1.869,2.4,2.571,3.746C467.7,665.927,464.325,671.191,460.419,674.219Z" transform="translate(-95.161 -189.461)" fill="#454b69"/>
    <path id="Path_1385" data-name="Path 1385" d="M460.277,599.325a12.584,12.584,0,0,0,2.769-3.051,5.691,5.691,0,0,0,.839-3.944,11.283,11.283,0,0,1-2.967,9.7c-1.915,1.961-5.508,3.883-8.307,3.212C453.007,603,458.5,600.836,460.277,599.325Z" transform="translate(-133.999 -202.217)" opacity="0.1"/>
    <path id="Path_1386" data-name="Path 1386" d="M373.882,548.548a5.119,5.119,0,0,1-3.387,3.494,14.112,14.112,0,0,1-5.027.587h-1.526c-20.017-.443-40.248-4.882-59.8-.648a43.293,43.293,0,0,0-6.911,2.037,31.2,31.2,0,0,0-7.941,4.577v-.107c1.06-5.416,3.921-6.751,8.658-9.223a103.932,103.932,0,0,1,17.057-7.094c11.443-3.578,23.763-4.867,35.571-2.243,5.515,1.236,10.832,3.28,16.355,4.478,2.174.473,4.363.809,6.568,1.091a5.272,5.272,0,0,1,.381,3.051Z" transform="translate(-95.267 -189.461)" opacity="0.1"/>
    <path id="Path_1387" data-name="Path 1387" d="M373.192,543.614a5.111,5.111,0,0,1-3.387,3.5,13.938,13.938,0,0,1-5.027.58h-1.526c-20.017-.443-40.248-4.882-59.8-.648a44.074,44.074,0,0,0-6.911,2.029,31.428,31.428,0,0,0-8.277,4.882q-.877-2.411-1.747-4.829c-.7-1.922,1.526-2.35,1.953-4.074.282-1.167-.2-2.495-.442-3.738a6.527,6.527,0,0,1-.122-.923c-.137-2.754.847-4.341,3.1-5.828,6.7-4.424,14.868-7.461,22.512-9.742a55.688,55.688,0,0,1,12.511-2.426c6.011-.351,12.015.763,17.866,2.174,7.194,1.777,14.311,4.127,20.688,7.888,3.128,1.823,6.179,4.112,7.865,7.362a5.8,5.8,0,0,1,.74,3.791Z" transform="translate(-94.577 -185.618)" fill="#a26565"/>
    <path id="Path_1388" data-name="Path 1388" d="M309.935,469.318c-2.289,7.255-8.536,13.792-16.142,14.1a2.815,2.815,0,0,1-1.61-.29c-.954-.6-.976-1.991-.587-3.051a13.2,13.2,0,0,0,1.175-3.128,2.045,2.045,0,0,0-.046-.679c4.035-5.691,7.949-11.443,9.5-18.179a9.718,9.718,0,0,0,.282-3.562,31.7,31.7,0,0,0-1.282-3.944c-.671-2.35-.359-4.836-.168-7.27a67.131,67.131,0,0,0-5.218-31.345,29.409,29.409,0,0,1-2.563-7.331,4.417,4.417,0,0,1,2.51-2.144c2.5-.839,4.142.465,4.508,2.838.61,4.035.259,8.155,1.06,12.206A57.214,57.214,0,0,0,304.7,428.6c1.35,3.219,2.99,6.332,4.028,9.665a53.248,53.248,0,0,1,1.671,8.391C311.446,454.221,312.247,462.064,309.935,469.318Z" transform="translate(-95.758 -157.138)" opacity="0.1"/>
    <path id="Path_1389" data-name="Path 1389" d="M373.669,543.6a5.111,5.111,0,0,1-3.387,3.5,13.938,13.938,0,0,1-5.027.58h-1.526a33.236,33.236,0,0,0-22.122-5.34c-2.487.3-4.974.877-7.461.648-5.027-.458-9.1-4.074-13.579-6.385a28.515,28.515,0,0,0-31.6,4.287l-.435.381a6.517,6.517,0,0,1-.122-.923c-.137-2.754.847-4.341,3.1-5.828,6.7-4.424,14.868-7.461,22.512-9.742a55.684,55.684,0,0,1,12.511-2.426c6.011-.351,12.015.763,17.866,2.174,7.194,1.777,14.311,4.127,20.688,7.888,3.1,1.854,6.156,4.142,7.842,7.392a5.8,5.8,0,0,1,.74,3.791Z" transform="translate(-95.054 -185.608)" opacity="0.1"/>
    <path id="Path_1390" data-name="Path 1390" d="M388.666,421.764l-.107.275c-1.709,4.432-4.852,8.178-6.866,12.5-2.54,5.47-3.166,11.6-3.73,17.614a91.5,91.5,0,0,0-.58,15.493c.976,12.724,7.194,24.792,8.857,37.273a41.432,41.432,0,0,1,.313,8.7,8.593,8.593,0,0,1-1.694,5.172c-1.221,1.358-3.593,1.892-4.905.587.587-1.121,1.182-2.235,1.777-3.357-3.486-2.708-8.735-.763-12.808-2.456a20.621,20.621,0,0,1-4.73-3.364,33.168,33.168,0,0,0-24.708-7.217c-2.487.305-4.974.885-7.461.656-5.027-.465-9.1-4.074-13.579-6.385a28.53,28.53,0,0,0-31.6,4.28c-1.068.992-2.5,2.151-3.814,1.526a3.174,3.174,0,0,1-1.182-1.289c-5-8.536-1.32-19.544,4.02-27.859s12.412-15.982,14.609-25.616a9.559,9.559,0,0,0,.282-3.562,31.7,31.7,0,0,0-1.282-3.944c-.671-2.35-.359-4.836-.168-7.27a67.131,67.131,0,0,0-5.2-31.353c-1.221-2.845-2.67-5.729-2.67-8.818,0-4.867,3.486-8.9,6.37-12.816,3.318-4.5,6.1-9.482,10.306-13.182,3.982-3.517,9.749-5.668,14.677-3.883a91.5,91.5,0,0,1,25.6-2.495c2.975.137,6.049.45,8.658,1.892,2.792,1.526,4.8,4.241,7.545,5.866a41.117,41.117,0,0,0,6.5,2.6A26.86,26.86,0,0,1,385.1,383.858c3.051,5.912,3.814,12.709,4.486,19.33C390.222,409.421,390.832,415.9,388.666,421.764Z" transform="translate(-92.94 -147.329)" fill="#6c63ff"/>
    <path id="Path_1391" data-name="Path 1391" d="M402.649,474.392c.976,12.724,7.194,24.792,8.857,37.273-3.326-2.815-7.956-5.645-8.574-8.918-.687-3.54-2.884-8.178-3.25-11.755s2.144-7.949-.488-10.405c-1.282-1.2,2.128-.862.877-2.09-2.815-2.739-3.509-6.957-3.685-10.871-.3-6.927.58-13.93-.694-20.742-.763-4.2-2.357-8.208-3.631-12.289-1.48-4.753-2.548-9.619-3.616-14.494a101.541,101.541,0,0,1-2.289-13.167c-.328-3.814-.175-7.857,1.526-11.336s5.142-6.3,9-6.248c12.907.168,10.68,17.667,13.518,25.754,1.137,3.219,2.67,6.332,3.288,9.688a25.68,25.68,0,0,1,.366,3.982c-1.709,4.432-4.852,8.178-6.866,12.5-2.54,5.47-3.166,11.6-3.73,17.614A88.7,88.7,0,0,0,402.649,474.392Z" transform="translate(-118.206 -154.079)" opacity="0.1"/>
    <path id="Path_1392" data-name="Path 1392" d="M411.313,414.822c1.137,3.219,2.67,6.332,3.288,9.688,1.03,5.622-.565,11.6,1.167,17.042a29.685,29.685,0,0,1,1.129,3.563,31.124,31.124,0,0,1-.046,5.264,30.08,30.08,0,0,0,1.686,8.307,148.471,148.471,0,0,1,5.3,28.347,35.543,35.543,0,0,0,1.213,7.629,25.331,25.331,0,0,1,.824,2.578,13.333,13.333,0,0,1,.145,3.532c-.206,3.738-.626,7.491-.206,11.214s1.777,7.5,4.577,9.993c-2.5.542-5.149,1.083-7.59.282-3.433-1.121-5.492-4.577-7.239-7.72-2.212-4.013-10.619-7.628-11.488-12.137-.679-3.532-2.876-8.17-3.242-11.755s2.136-7.941-.5-10.4c-1.274-1.2,2.136-.87.877-2.09-2.807-2.739-3.5-6.957-3.677-10.878-.3-6.919.572-13.922-.694-20.734-.763-4.2-2.357-8.208-3.631-12.3-1.48-4.745-2.548-9.612-3.616-14.494a100.5,100.5,0,0,1-2.289-13.167c-.328-3.814-.183-7.865,1.526-11.343s5.149-6.293,9-6.248C410.687,389.229,408.475,406.736,411.313,414.822Z" transform="translate(-118.479 -153.996)" fill="#6c63ff"/>
    <path id="Path_1393" data-name="Path 1393" d="M369.451,425.163c1.205,1.411,2.754,2.96,4.577,2.685a.992.992,0,0,1-1.35.32A2.9,2.9,0,0,1,371.663,427l-2.609-4.4c-.343-.572-2.708-3.906-3.288-1.983C365.538,421.432,368.864,424.476,369.451,425.163Z" transform="translate(-113.401 -161.354)" opacity="0.1"/>
    <path id="Path_1394" data-name="Path 1394" d="M364.344,438.757a5.813,5.813,0,0,0-1.7-3.814,9.536,9.536,0,0,0-3.151-1.9,22.821,22.821,0,0,0-9.352-1.968c1.129,1.648,4.753,2.632,6.568,3.562Q360.568,436.628,364.344,438.757Z" transform="translate(-109.698 -163.971)" opacity="0.1"/>
    <path id="Path_1395" data-name="Path 1395" d="M371.049,478.58c-.526,3.906-3.723,6.866-6.957,9.154s-6.866,4.257-8.979,7.567c-1.465,2.289-2.121,4.943-3.364,7.331-1.373,2.632-3.425,4.844-5.065,7.316s-2.922,5.424-2.418,8.353a.984.984,0,0,0,.351.7,1,1,0,0,0,.969-.107c3.326-1.739,4.638-5.714,6.034-9.154a105.768,105.768,0,0,1,4.943-10.161c.824-1.526,1.732-3.189,3.265-4.035a28.647,28.647,0,0,1,3.219-1.121,10.824,10.824,0,0,0,3.974-3.12,26.2,26.2,0,0,0,6.1-17.782c-.046-1.366-.122-7.941-2.174-5.912S371.4,475.925,371.049,478.58Z" transform="translate(-108.279 -172.548)" opacity="0.1"/>
    <path id="Path_1396" data-name="Path 1396" d="M362.6,284.023c6.56,2.861,12.205,9.154,12,16.287-.175,7.491-6.446,14.547-4.287,21.726,1.251,4.165,5.02,6.957,8,10.123,11.359,12.022,11.336,33.008-.061,45.008-4.363,4.577-9.97,7.834-14.586,12.206-16.271,15.333-16.966,41.857-8.254,62.446a101.561,101.561,0,0,1-20.307,2.289c-3.2,0-7.11-.542-8.269-3.524-1.068-2.754.763-6.477-1.343-8.513-.992-.954-2.479-1.083-3.814-1.3-8.59-1.388-15.638-8.246-18.857-16.325s-3.051-17.172-1.205-25.67c1.312-6.141,3.364-12.9.32-18.392-3.814-6.911-14.784-9.825-14.616-17.728.137-6.477,7.773-9.627,12.106-14.441,7.995-8.864,4.188-22.618,4.173-34.564,0-10.512,3.677-21.36,11.5-28.363C326.743,274.777,349.163,278.187,362.6,284.023Z" transform="translate(-94.799 -127.79)" fill="#a26565"/>
    <g id="Group_324" data-name="Group 324" transform="translate(192.549 170.909)" opacity="0.1">
      <path id="Path_1397" data-name="Path 1397" d="M303.2,397.125c-3.349-6.042-12.144-9.032-14.189-14.975a8.459,8.459,0,0,0-1.648,4.775c-.168,7.9,10.787,10.817,14.616,17.736a14.41,14.41,0,0,1,1.526,7.949C304.706,407.3,305.767,401.763,303.2,397.125Z" transform="translate(-287.357 -323.281)"/>
      <path id="Path_1398" data-name="Path 1398" d="M397.242,318.536c1.373-4,3.364-8.048,3.463-12.206a11.445,11.445,0,0,0-.038-1.35C399.134,309.572,396.784,314.027,397.242,318.536Z" transform="translate(-313.403 -304.98)"/>
      <path id="Path_1399" data-name="Path 1399" d="M309.567,341.044c2.624-8.292.359-18.575.351-27.775,0-1.114.046-2.235.13-3.349A44.048,44.048,0,0,0,308.69,320.8C308.705,327.366,309.857,334.491,309.567,341.044Z" transform="translate(-292.417 -306.152)"/>
      <path id="Path_1400" data-name="Path 1400" d="M399.448,393.533c-4.363,4.577-9.97,7.834-14.586,12.206-8.239,7.758-12.473,18.385-13.533,29.652a43.61,43.61,0,0,1,12.312-22.122c4.577-4.348,10.222-7.59,14.586-12.206a32.413,32.413,0,0,0,8.506-20.643A30.979,30.979,0,0,1,399.448,393.533Z" transform="translate(-307.272 -322.871)"/>
      <path id="Path_1401" data-name="Path 1401" d="M340.428,483.343c-3.2,0-7.11-.549-8.269-3.532-1.068-2.746.763-6.469-1.343-8.513-.992-.954-2.487-1.083-3.814-1.3-8.582-1.381-15.631-8.246-18.85-16.317a40.8,40.8,0,0,1-2.289-18.9c-.061.252-.114.5-.168.763-1.816,8.5-2.006,17.6,1.205,25.677s10.268,14.936,18.85,16.317c1.358.221,2.853.359,3.814,1.3,2.128,2.044.275,5.767,1.343,8.513,1.16,2.983,5.073,3.57,8.269,3.532a101.635,101.635,0,0,0,20.307-2.289,68.184,68.184,0,0,1-2.464-6.812A101.262,101.262,0,0,1,340.428,483.343Z" transform="translate(-291.398 -335.763)"/>
    </g>
    <path id="Path_1402" data-name="Path 1402" d="M384.373,453.17c1.884,1.419,3.929-3.99,2.761-5.34C386.822,448.181,384.083,452.972,384.373,453.17Z" transform="translate(-117.812 -167.948)" opacity="0.1"/>
    <path id="Path_1403" data-name="Path 1403" d="M394.91,580.49c2.22-.763,4.577-1.526,6.026-3.357,1.2-1.472,2.182-7.316-.351-4.516C398.434,575.02,397.42,578.186,394.91,580.49Z" transform="translate(-120.315 -197.365)" opacity="0.1"/>
    <path id="Path_1404" data-name="Path 1404" d="M423.648,572.572a8.763,8.763,0,0,1-2.037,4.966c-.236.244-.763.4-.832.069a19.289,19.289,0,0,0,3.936-2.777c2.578-2.555,2.929-8.849-1-10.52C423.679,567.071,424.068,569.764,423.648,572.572Z" transform="translate(-126.451 -195.572)" opacity="0.1"/>
    <path id="Path_1405" data-name="Path 1405" d="M450.3,557.879s-21.65-8.506-29.476-7.628,8.864,13.212,8.864,13.212l9.978,6.728s6.1-2.289,6.507-2.464S450.3,557.879,450.3,557.879Z" transform="translate(-125.965 -192.223)" fill="#454b69"/>
    <path id="Path_1406" data-name="Path 1406" d="M264.84,439.535s16.264-9.429,37.73,2.289,25.044,80.671,25.044,80.671-8.78,70.25,25.075,54.62c0,0,61.79-19.186,67.977-14.959,0,0,5.859,0-5.851,2.6s-56.946,16.935-56.946,16.935-14.624,5.111-20.818,0-23.747.656-26.028-34.481a611.029,611.029,0,0,0-8.132-66.032l-6.034-17.889Z" transform="translate(-89.469 -165.131)" fill="#565661"/>
    <path id="Path_1407" data-name="Path 1407" d="M260.338,548.586s7.155-71.234-4.577-96.935c-10.207-22.4,29.263-11.923,39.561-8.872a7.5,7.5,0,0,1,3.952,2.823c6.1,8.582,28,42.979,21.543,89,0,0-2.6,40.988,13.663,47.487l-50.111-16.142c-4.066-1.312-8.193-2.4-12.358-3.349C266.7,561.394,258.049,557.969,260.338,548.586Z" transform="translate(-86.919 -165.537)" fill="#fff"/>
    <path id="Path_1408" data-name="Path 1408" d="M694.53,647.131h6.507l4.264-87.452.29-4.974-5.531-1.945-.366,5.286Z" transform="translate(-164.703 -131.096)" fill="#565661"/>
    <path id="Path_1409" data-name="Path 1409" d="M701.3,558.047l5.607,1.633.29-4.974-5.531-1.945Z" transform="translate(-166.309 -131.096)" opacity="0.1"/>
    <path id="Path_1410" data-name="Path 1410" d="M645.513,702.137a14.665,14.665,0,0,1-.915,3.494,6.172,6.172,0,0,1-2.784,3.479,7.355,7.355,0,0,1-2.815.557c-3.593.214-7.392.16-10.481-1.671a19.073,19.073,0,0,1-3.593-3,163.931,163.931,0,0,1-18.857-22.428c-.938-1.35-1.907-2.945-1.488-4.577A71.106,71.106,0,0,0,625,668.649a9.857,9.857,0,0,1,2.868-1.526,15.585,15.585,0,0,1,5.386-.2c1.732.282,1.808.336,2.472,2.289,1.1,3.3.915,6.866,2.151,10.169a31.5,31.5,0,0,0,2.853,5.218C643.919,689.932,646.367,696.225,645.513,702.137Z" transform="translate(-170.016 -219.873)" fill="#a26565"/>
    <path id="Path_1411" data-name="Path 1411" d="M645.513,704.9a14.665,14.665,0,0,1-.915,3.494,6.172,6.172,0,0,1-2.784,3.479,7.355,7.355,0,0,1-2.815.557c-3.593.214-7.392.16-10.481-1.671a19.073,19.073,0,0,1-3.593-3,163.931,163.931,0,0,1-18.857-22.428c-.938-1.35-1.907-2.945-1.488-4.577a70.82,70.82,0,0,0,6.988-2.334l.114.084a25.635,25.635,0,0,1,5.7,6.416l5.34,7.514a22.121,22.121,0,0,0,3.349,4.043,22.411,22.411,0,0,0,5.18,3.112c2.51,1.213,5.02,2.426,7.628,3.4C640.562,703.67,643.415,703.937,645.513,704.9Z" transform="translate(-170.016 -222.634)" opacity="0.1"/>
    <path id="Path_1412" data-name="Path 1412" d="M657.321,603.78a22.964,22.964,0,0,1-1.907,3.639,155.743,155.743,0,0,0-16.264,38.058c-1.053-.237-1.648,1.2-1.64,2.289s0,2.464-1.007,2.861c-.3.114-.633.114-.923.244-.641.29-.824,1.106-.915,1.808l-.9,6.606c-.313,2.289-.587,4.768.534,6.789a10.855,10.855,0,0,0,2.952,3.051l14.891,11.748c.61.481,1.365.992,2.1.725,1.671-.61.191-3.6,1.526-4.813.885-.832,2.289-.206,3.517-.305a3.979,3.979,0,0,0,3.219-3.143,14.946,14.946,0,0,0,.084-4.775,4.332,4.332,0,0,1,.244-2.144,5.2,5.2,0,0,1,1.823-1.747,19.574,19.574,0,0,0,8.017-16.508,9.152,9.152,0,0,1,.107-2.922,7.7,7.7,0,0,1,1.381-2.411c5.409-7.316,9.917-15.257,14.395-23.183,2.578-4.577,5.2-9.223,6.1-14.38a1.335,1.335,0,0,0-1.1-1.831,51.892,51.892,0,0,0-6.82-1.633c-7.011-1.419-13.777-3.608-20.6-5.714S659.373,598.272,657.321,603.78Z" transform="translate(-176.896 -202.98)" fill="#454b69"/>
    <path id="Path_1413" data-name="Path 1413" d="M587.5,658.39l10.741,1.3,49.44-112.222,13.334-.976,23.427,6.835,4.547,133.612h10.733L695.5,548.441l25.7.656,45.862,114.167h9.757L728.58,529.836l-1.854-5.142-71.89-2.464-17.919,10.047-.229.58Z" transform="translate(-139.32 -123.856)" fill="#565661"/>
    <path id="Path_1414" data-name="Path 1414" d="M686.94,613.786c15.448,4.653,31.483,9.734,31.483,9.734s14.624,5.1,20.818,0a9.357,9.357,0,0,1,2.586-1.427,12.741,12.741,0,0,1-2.586,1.427l39.592-12.762L777,605.624l-71.89-2.464-17.919,10.047Z" transform="translate(-189.572 -204.786)" opacity="0.1"/>
    <path id="Path_1415" data-name="Path 1415" d="M750.33,586.037l-29.27-6.507s-69.937,13.014-75.14,18.217c0,0,55.947,11.382,62.126,15.257S750.986,621.166,750.33,586.037Z" transform="translate(-179.844 -199.182)" fill="#fff"/>
    <path id="Path_1416" data-name="Path 1416" d="M623.489,715.471c-1.762,3.357-6.1,4.3-9.917,4.356a41.874,41.874,0,0,1-15.5-2.769,90.2,90.2,0,0,0-8.445-3.273c-4.341-1.19-9.154-1.091-12.968-3.479a15.256,15.256,0,0,1-4.875-5.287c-.221-.374-.435-.763-.633-1.159a16.336,16.336,0,0,1-1.655-11.5c1.015-3.829,4.7-8.048,8.971-7.987,5.073.076,11.122,2.479,16.02,3.723,6.1,1.526,12.206,3.288,17.6,6.515a26.322,26.322,0,0,1,10.634,11.374,19.282,19.282,0,0,1,1.007,2.838A8.9,8.9,0,0,1,623.489,715.471Z" transform="translate(-161.616 -224.045)" fill="#a26565"/>
    <path id="Path_1417" data-name="Path 1417" d="M624.139,721.53c-1.762,3.357-6.1,4.3-9.917,4.356a41.873,41.873,0,0,1-15.5-2.769,90.2,90.2,0,0,0-8.445-3.273c-4.341-1.19-9.154-1.091-12.968-3.479a15.257,15.257,0,0,1-4.875-5.287c-.221-.374-.435-.763-.633-1.159.763.061,1.465.137,1.846.175,4.684.45,9.154,2.159,13.624,3.448a76.523,76.523,0,0,0,19.071,2.975c4.577.13,9.352-.206,13.35-2.441a35.018,35.018,0,0,1,3.707-2.037,19.272,19.272,0,0,1,1.007,2.838A9.046,9.046,0,0,1,624.139,721.53Z" transform="translate(-162.266 -230.105)" opacity="0.1"/>
    <path id="Path_1418" data-name="Path 1418" d="M651.1,534.085c-9.917-1.625-20.017-2.022-30.071-2.418l-12.3-.488a5.575,5.575,0,0,0-2.586.313,16.845,16.845,0,0,0-2.022,1.526,8.364,8.364,0,0,1-4.3,1.015,214.174,214.174,0,0,0-31.4,4.074c-5.34,1.091-10.886,2.517-14.9,6.2-4.241,3.9-6.1,9.841-6.248,15.593s1.365,11.4,2.96,16.927a77.117,77.117,0,0,1,3.334,20.49,38.335,38.335,0,0,0,.221,5.775,27.624,27.624,0,0,0,1.61,5.34l5.615,14.99c.5,1.312.984,2.617,1.526,3.9s1.06,2.289,1.526,3.494c.687,1.648,1.228,3.357,1.77,5.058l3.738,11.74.488,1.526c1.35,4.226,2.731,8.529,5.279,12.16s6.492,6.56,10.924,6.782a33.462,33.462,0,0,1,4.287.115,17.336,17.336,0,0,1,3.517,1.274,26.829,26.829,0,0,0,10.5,2.052c3.318,0,7-.923,8.8-3.715a12.944,12.944,0,0,0,1.526-5.2c.481-3.616.946-7.392-.282-10.825-.763-2.052-2.044-3.814-2.929-5.836-1.236-2.754-1.64-5.8-2.441-8.7A33.245,33.245,0,0,0,599.1,621.095a159.107,159.107,0,0,1-3.814-20.887,18.383,18.383,0,0,0-.923-4.577c-.893-2.289-2.7-4.142-3.456-6.477-.709-2.167-.5-4.669-1.785-6.538,10.733,2.952,21.36,2.289,32.5,2.113a88.8,88.8,0,0,0,10.68-.61,33.571,33.571,0,0,1,5-.534c3.448,0,6.682,1.526,9.848,2.868,8.948,3.814,18.377,6.812,28.1,7.224,10.031.42,19.948-1.938,29.751-4.272,4.31-1.03,8.788-2.144,12.205-4.974s5.34-7.934,3.234-11.816c-1.6-2.922-4.92-4.356-8.017-5.576-8.574-3.387-17.194-6.69-25.456-10.787C674.359,550.1,664.923,536.373,651.1,534.085Z" transform="translate(-156.448 -187.706)" fill="#454b69"/>
    <path id="Path_1419" data-name="Path 1419" d="M657.895,484.615c-1.2,2.594-3.212,4.714-4.7,7.155a18.133,18.133,0,0,0-2.289,13.464,15.318,15.318,0,0,0,8.582,10.443,21.536,21.536,0,0,0,5.95,1.434c2.685.328,5.546.4,7.918-.9a11.565,11.565,0,0,0,4.219-4.409,44.714,44.714,0,0,0,4.287-11.153c1.976-7.11,3.662-14.4,3.418-21.779-.084-2.54-.587-5.4-2.693-6.866a9.055,9.055,0,0,0-3.54-1.16l-10.062-1.8c-1.945-.351-5.34-1.777-7.026-.374s-1.816,5.554-2.105,7.5C659.4,479.046,659.115,481.968,657.895,484.615Z" transform="translate(-180.925 -172.747)" fill="#a1616a"/>
    <path id="Path_1420" data-name="Path 1420" d="M813.586,448.394l-2.632,22.061a101.461,101.461,0,0,0-.938,11.87c0,2.212.069,4.669-1.4,6.324A5.766,5.766,0,0,1,806,490.228c-3.2.992-6.683.107-9.734-1.259-1.785-.763-3.608-1.869-4.417-3.646a9.06,9.06,0,0,1-.572-3.868c0-13.159,1.244-26.883,8.117-38.1a8.308,8.308,0,0,1,2.418-2.792c1.907-1.221,4.4-.877,6.56-.214,1.327.4,4.913.854,5.759,2.037S813.769,446.876,813.586,448.394Z" transform="translate(-214.31 -166.033)" fill="#a1616a"/>
    <circle id="Ellipse_35" data-name="Ellipse 35" cx="27.462" cy="27.462" r="27.462" transform="translate(501.991 147.658)" fill="#a1616a"/>
    <path id="Path_1421" data-name="Path 1421" d="M716.586,353.653a14.165,14.165,0,0,1-1.7,6.1q21.032-3.2,41.956-7.14a19.7,19.7,0,0,1-9.734-11.443,32.314,32.314,0,0,1-1.236-8.155,94.272,94.272,0,0,1,.252-13.129c-4.882.511-9.505,2.342-14.158,3.913a139.6,139.6,0,0,1-14.258,3.99c-2.327.519-4.669.961-7.018,1.373-2.746.488-4.066.481-2.159,2.891C713.649,338.5,717.3,345.041,716.586,353.653Z" transform="translate(-194.479 -137.607)" fill="#a1616a"/>
    <path id="Path_1422" data-name="Path 1422" d="M713.777,357.207c-3.624.542-7.422,1.152-10.314,3.395a38.917,38.917,0,0,0-3.135,3.013c-5.744,5.576-13.853,7.819-20.826,11.755a9.155,9.155,0,0,0-2.96,2.327c-.763,1.06-1.152,2.411-1.953,3.463-.931,1.221-2.4,1.983-3.128,3.334s-.564,2.784-.641,4.219c-.175,3.151-1.365,6.141-2.289,9.154C664.3,412.292,666.618,428.38,660.21,442a6.2,6.2,0,0,0,3.372,3.524,19.146,19.146,0,0,0,5,1.076l14.2,1.762c2.029.252,4.18.488,6.034-.359a70.894,70.894,0,0,0-3.578,14.441,71.917,71.917,0,0,1-1.6,8.941c-1.953,6.713-6.866,12.3-12.686,16.127a4.691,4.691,0,0,0-1.793,1.655c-.763,1.526.366,3.234,1.167,4.73,2.327,4.333,2.006,9.536,1.976,14.448s.465,10.306,3.9,13.83c2.029,2.083,4.806,3.212,7.506,4.287l22.206,8.872a77.387,77.387,0,0,0,11.305,3.814c5.851,1.335,11.931,1.282,17.934,1.022q5.95-.252,11.885-.763a9.246,9.246,0,0,0,4.493-1.182,8.39,8.39,0,0,0,2.632-3.57c3.089-6.721,4.127-14.563,8.918-20.193,3.288-3.868,8.391-6.957,8.765-12.015.175-2.517-.946-4.966-.961-7.491,0-3.1,1.625-6.057,1.526-9.154-.206-5.042-4.958-8.887-5.714-13.876-1.922-12.648,4.5-25.281,8.445-37.448.709-2.174,1.625-4.577,3.715-5.508s5.035-.442,5.782-2.5c1.884-5.172,2.334-11.237,2.09-16.737-.137-3.181-1.266-6.293-1.137-9.482.092-2.243.809-4.424,1-6.66.29-3.379-.6-6.736-1.526-10a15.665,15.665,0,0,0-1.19-3.372,16.019,16.019,0,0,0-1.983-2.723l-3.715-4.417c-1.739-2.067-3.578-4.211-6.1-5.256-.816-2.022-3.425-3.418-5.294-4.531a54.253,54.253,0,0,0-5.828-2.861l-21.009-9.276a8.6,8.6,0,0,0-2.495-.809,8.078,8.078,0,0,0-3.707.763C727.333,353.652,720.642,356.184,713.777,357.207Z" transform="translate(-183.233 -144.829)" fill="#6c63ff"/>
    <path id="Path_1423" data-name="Path 1423" d="M699.989,302.607c-.809-2.845-2.876-5.3-3.189-8.246-.282-2.617.87-5.149,1.526-7.7s.633-5.66-1.388-7.354c-.336-.29-.763-.549-.885-.976-.244-.763.526-1.457.763-2.228.435-1.526-1.449-3.212-.763-4.676.389-.8,1.365-1.083,2.22-1.335,3.265-.969,6.576-3.12,7.285-6.454,2.556,1.068,5.279-.938,7.239-2.884s4.371-4.165,7.072-3.578l-.6,1.228a19.529,19.529,0,0,1,12.915-.145H730.9a17.713,17.713,0,0,1,10.214,3.456c-.328,0-.359.488-.229.763,1.068,2.494,3.814,3.814,6.461,4.432,1.594.381,3.326.656,4.493,1.8s1.19,3.532-.351,4.081a40.13,40.13,0,0,1,8.857,4.806c.763.557,1.625,1.312,1.526,2.289a7.448,7.448,0,0,1-.473,1.427,4.936,4.936,0,0,0,.16,2.441l.847,3.494c.931,3.883,1.663,8.559-1.167,11.374a10.443,10.443,0,0,1-1.838,12.328,5.081,5.081,0,0,1-3.814,6.568c.938,1.465.076,3.555-1.4,4.47a8.157,8.157,0,0,1-5.065.763,21.621,21.621,0,0,0-5.195-.29c-2.51.389-4.966,2.1-7.384,1.335a16.576,16.576,0,0,1-2.586-1.388,20.984,20.984,0,0,0-5.538-1.526,25.585,25.585,0,0,1-8.948-3.814,10.488,10.488,0,0,1-4.112-4.577c-1.678-4.241,1.144-9.8-1.823-13.258a5.241,5.241,0,0,0-7.133-.32c-.969.862-1.1,2.678-2.105,3.326a13.313,13.313,0,0,1-4.3.366Z" transform="translate(-191.697 -122.712)" fill="#464353"/>
    <path id="Path_1424" data-name="Path 1424" d="M651.168,601.325a12.586,12.586,0,0,1-2.769-3.051,5.691,5.691,0,0,1-.839-3.944,11.283,11.283,0,0,0,2.967,9.7c1.915,1.961,5.508,3.883,8.307,3.212C658.438,605,652.945,602.836,651.168,601.325Z" transform="translate(-180.194 -202.692)" opacity="0.1"/>
    <path id="Path_1425" data-name="Path 1425" d="M801.26,441.535s-16.264-9.429-37.73,2.289-25.044,80.671-25.044,80.671,8.78,70.25-25.075,54.62c0,0-61.79-19.186-67.977-14.959,0,0-5.859,0,5.851,2.6s56.946,16.935,56.946,16.935,14.624,5.111,20.818,0,23.747.656,26.028-34.481a611.006,611.006,0,0,1,8.132-66.032l6.034-17.889Z" transform="translate(-179.381 -165.605)" fill="#565661"/>
    <path id="Path_1426" data-name="Path 1426" d="M829.671,550.586s-7.156-71.234,4.577-96.935c10.207-22.4-29.263-11.923-39.561-8.872a7.5,7.5,0,0,0-3.952,2.822c-6.1,8.582-28,42.979-21.543,89,0,0,2.6,40.988-13.662,47.487l50.111-16.142c4.066-1.312,8.193-2.4,12.358-3.349C823.309,563.394,831.959,559.969,829.671,550.586Z" transform="translate(-205.839 -166.011)" fill="#fff"/>
    <ellipse id="Ellipse_36" data-name="Ellipse 36" cx="74.331" cy="11.939" rx="74.331" ry="11.939" transform="translate(680.87 499.214)" fill="#6c63ff" opacity="0.1"/>
    <rect id="Rectangle_130" data-name="Rectangle 130" width="4.783" height="107.691" transform="translate(752.806 282.445)" fill="#535461"/>
    <path id="Path_1427" data-name="Path 1427" d="M1047.287,589.658l-.3,4.852-.427,6.866-.175,2.853-.42,6.866-.183,2.853-.427,6.866-4.821,77.863A13.2,13.2,0,0,1,1027.369,711h-25.075a13.182,13.182,0,0,1-13.151-12.373l-4.836-77.871-.42-6.866-.175-2.853-.435-6.866-.175-2.853-.42-6.866-.305-4.852a6.866,6.866,0,0,1,6.82-7.255h51.278a6.866,6.866,0,0,1,6.812,7.308Z" transform="translate(-259.634 -199.851)" fill="#565661"/>
    <path id="Path_1428" data-name="Path 1428" d="M1012.128,517.36l-.427,6.843H948.247l-.427-6.843Z" transform="translate(-224.773 -122.701)" fill="#9d9cb5"/>
    <path id="Path_1429" data-name="Path 1429" d="M1011.712,530.08l-.42,6.85H949.037l-.427-6.85Z" transform="translate(-224.96 -125.718)" fill="#9d9cb5"/>
    <path id="Path_1430" data-name="Path 1430" d="M1011.3,542.8l-.427,6.843H949.827L949.4,542.8Z" transform="translate(-225.147 -128.734)" fill="#9d9cb5"/>
    <path id="Path_1431" data-name="Path 1431" d="M954.1,497.479c27.859,20.154,39.462,51.675,39.462,51.675S960,548,932.134,527.847,892.68,476.18,892.68,476.18,926.253,477.332,954.1,497.479Z" transform="translate(-238.365 -174.672)" fill="#6c63ff"/>
    <path id="Path_1432" data-name="Path 1432" d="M892.68,476.18s34.839,19.338,46.022,35.35,54.864,37.623,54.864,37.623" transform="translate(-238.365 -174.672)" fill="none" stroke="#535461" stroke-miterlimit="10" stroke-width="2"/>
    <path id="Path_1433" data-name="Path 1433" d="M986.39,447.275c15.165,10.962,21.482,28.126,21.482,28.126s-18.308-.633-33.435-11.6S953,435.68,953,435.68,971.232,436.306,986.39,447.275Z" transform="translate(-252.67 -165.067)" fill="#6c63ff"/>
    <path id="Path_1434" data-name="Path 1434" d="M953,435.68s18.964,10.527,25.044,19.239,29.865,20.482,29.865,20.482" transform="translate(-252.67 -165.067)" fill="none" stroke="#535461" stroke-miterlimit="10" stroke-width="2"/>
    <path id="Path_1435" data-name="Path 1435" d="M1047.25,478.774c-17.416,19.14-21.1,44.153-21.1,44.153s24.556-6.026,41.956-25.174,21.1-44.153,21.1-44.153S1064.666,459.634,1047.25,478.774Z" transform="translate(-270.018 -169.317)" fill="#6c63ff"/>
    <path id="Path_1436" data-name="Path 1436" d="M1089.222,453.61s-22.687,19.62-28.454,33.138-34.618,36.182-34.618,36.182" transform="translate(-270.018 -169.319)" fill="none" stroke="#535461" stroke-miterlimit="10" stroke-width="2"/>
    <path id="Path_1437" data-name="Path 1437" d="M575.906,416.569v1.739H524.33V416.9a17.333,17.333,0,0,0,3.982-2.121A16.943,16.943,0,0,0,535.391,401a16.723,16.723,0,0,0-.526-4.173A16.958,16.958,0,0,0,525.5,385.59h50.058a16.958,16.958,0,0,0-9.368,11.237,16.72,16.72,0,0,0-.519,4.173,16.935,16.935,0,0,0,7.071,13.777,17.45,17.45,0,0,0,3.166,1.793Z" transform="translate(-151.008 -153.188)" fill="#dfe6f5"/>
    <path id="Path_1438" data-name="Path 1438" d="M575.918,385.59a16.958,16.958,0,0,0-9.368,11.237H535.228a16.958,16.958,0,0,0-9.368-11.237Z" transform="translate(-151.371 -153.188)" opacity="0.1"/>
    <path id="Path_1439" data-name="Path 1439" d="M446.92,373.94v9.795c0,5.4,3.952,9.787,8.834,9.787H607.491c4.882,0,8.841-4.386,8.841-9.787V373.94Z" transform="translate(-132.65 -150.425)" fill="#dfe6f5"/>
    <path id="Path_1440" data-name="Path 1440" d="M575.906,425.643v1.739H524.33v-1.411a17.333,17.333,0,0,0,3.982-2.121H572.74a17.448,17.448,0,0,0,3.166,1.793Z" transform="translate(-151.008 -162.261)" opacity="0.1"/>
    <rect id="Rectangle_131" data-name="Rectangle 131" width="85.66" height="5.164" rx="2.582" transform="translate(356.28 262.13)" fill="#dfe6f5"/>
    <path id="Path_1441" data-name="Path 1441" d="M616.332,230.564a8.834,8.834,0,0,0-8.841-8.834H455.754a8.826,8.826,0,0,0-8.834,8.834V339.75H616.332Z" transform="translate(-132.65 -114.327)" fill="#474157"/>
    <path id="Path_1442" data-name="Path 1442" d="M613.147,237.128v93.83a4.348,4.348,0,0,1-4.348,4.356H457.328a4.348,4.348,0,0,1-4.348-4.356v-93.83a4.287,4.287,0,0,1,.58-2.174,4.348,4.348,0,0,1,3.768-2.174H608.8a4.348,4.348,0,0,1,4.348,4.348Z" transform="translate(-134.087 -116.948)" fill="#4c4c78"/>
    <circle id="Ellipse_37" data-name="Ellipse 37" cx="2.037" cy="2.037" r="2.037" transform="translate(396.939 109.577)" fill="#fff"/>
    <circle id="Ellipse_38" data-name="Ellipse 38" cx="5.027" cy="5.027" r="5.027" transform="translate(393.949 228.687)" fill="#fff"/>
    <path id="Path_1443" data-name="Path 1443" d="M613.151,237.128H453a4.348,4.348,0,0,1,4.348-4.348H608.8a4.348,4.348,0,0,1,4.348,4.348Z" transform="translate(-134.092 -116.948)" fill="#c8cad7"/>
    <circle id="Ellipse_39" data-name="Ellipse 39" cx="1.091" cy="1.091" r="1.091" transform="translate(322.15 116.915)" fill="#ededf4"/>
    <circle id="Ellipse_40" data-name="Ellipse 40" cx="1.091" cy="1.091" r="1.091" transform="translate(325.415 116.915)" fill="#ededf4"/>
    <circle id="Ellipse_41" data-name="Ellipse 41" cx="1.091" cy="1.091" r="1.091" transform="translate(328.68 116.915)" fill="#ededf4"/>
  </g>
</svg>
